<?xml version="1.0" encoding="iso-8859-1"?>
<!-- Generator: Adobe Illustrator 16.0.4, SVG Export Plug-In . SVG Version: 6.00 Build 0)  -->
<!DOCTYPE svg PUBLIC "-//W3C//DTD SVG 1.1//EN" "http://www.w3.org/Graphics/SVG/1.1/DTD/svg11.dtd">
<svg version="1.1"
	 id="Capa_1" text-rendering="geometricPrecision" image-rendering="optimizeQuality" shape-rendering="geometricPrecision"
	 xmlns="http://www.w3.org/2000/svg" xmlns:xlink="http://www.w3.org/1999/xlink" x="0px" y="0px" width="300px" height="300px"
	 viewBox="0 0 300 300" style="enable-background:new 0 0 300 300;" xml:space="preserve">
<path d="M263.203,107.542c-11.053-16.58-25.457-24.869-43.212-24.869c-16.765,0-25.156,4.151-25.156,12.44
	c0,6.315,3.057,9.465,9.179,9.465c1.775,0,4.381-0.544,7.838-1.633c3.451-1.075,6.164-1.631,8.14-1.631
	c12.235,0,22.1,6.515,29.595,19.544c6.315,10.853,9.472,22.98,9.472,36.396c0,19.342-6.558,35.951-19.679,49.867
	c-13.121,13.918-29.352,20.86-48.682,20.86l-1.48-0.302c1.575-4.523,3.057-9.205,4.438-14.044c1.374-4.838,2.067-9.32,2.067-13.458
	c0-13.432-3.355-28.621-10.058-45.589c-7.694-18.741-16.68-30.967-26.938-36.694c-4.934-2.564-14.991-4.641-30.181-6.215
	c-12.83-1.374-19.831-3.85-21.013-7.402c-3.364-9.264-7.101-14.59-11.247-15.978c-2.77-0.989-4.839-1.776-6.212-2.362
	c-0.402-4.153-1.733-8.45-4.003-12.874c-2.269-4.45-3.399-6.857-3.399-7.258c0-4.339-2.178-10.751-6.508-19.243
	c-4.939,5.525-8.491,9.091-10.661,10.652c-4.146,2.964-8.784,4.453-13.91,4.453c-4.934,0-10.065-1.576-15.392-4.74
	c-4.538-3.15-9.07-6.315-13.609-9.479h-0.594c0,3.751,1.877,12.543,5.628,26.346c-2.771,6.313-4.146,11.34-4.146,15.09
	c0,5.141,3.257,11.898,9.767,20.275c6.505,8.389,9.764,15.448,9.764,21.161c0,1.188-0.295,2.907-0.89,5.183
	c-0.594,2.277-0.887,3.996-0.887,5.184c0,7.101,3.451,14.59,10.358,22.492c5.919,6.314,11.74,12.528,17.461,18.642
	c2.169,2.966,3.256,8.089,3.256,15.392c0,2.765-0.394,7.99-1.18,15.679c-0.996,8.491-1.883,13.229-2.665,14.202
	c-2.176,1.189-4.444,2.478-6.814,3.852c-3.551,2.178-5.328,4.739-5.328,7.691c0,3.363,3.358,5.038,10.065,5.038
	c8.885,0,14.806-1.877,17.762-5.627c2.37-2.562,4.439-8.477,6.214-17.755c1.374,17.169,4.339,25.745,8.877,25.745
	c1.582,0,3.85-0.287,6.808-0.89c2.957-0.587,5.132-0.889,6.508-0.889c2.562,0,6.515,1.535,11.841,4.598
	c5.326,3.051,10.944,4.582,16.865,4.582c4.54,0,11.146-1.145,19.829-3.408c8.68-2.261,15.293-3.294,19.832-3.106h5.324
	c26.047,0.802,47.845-7.489,65.412-24.854c17.555-17.354,26.339-38.973,26.339-64.816
	C278.001,138.512,273.067,121.93,263.203,107.542z M33.839,92.15c-3.951,0-6.119-2.176-6.515-6.514l3.853-1.775h0.888
	c-0.595,3.35-0.302,5.326,0.887,5.927c0.588-1.775,1.081-3.464,1.475-5.04c1.188,0.199,2.764,1.675,4.74,4.438
	C37.583,91.163,35.809,92.15,33.839,92.15z M47.749,104.863h-0.594c-1.188-0.972-2.077-1.775-2.662-2.361h1.181
	c0.986,0.399,1.683,0.788,2.075,1.189V104.863z M54.258,92.15c-1.977,0-4.046-0.688-6.216-2.075
	c0.788-3.552,2.372-5.426,4.734-5.614c0.594,2.363,1.482,4.325,2.663,5.915l0.301-0.301c-0.2-1.977-0.301-3.938-0.301-5.915
	c2.169,0,3.952,0.588,5.325,1.778l0.301,1.174C61.064,90.475,58.796,92.15,54.258,92.15z"/>
</svg>
